# xmcd CD database file
#
# Track frame offsets:
#	150
#	10063
#	21809
#	36153
#	46635
#	58303
#	69813
#	81684
#	94992
#	108150
#	118639
#	130450
#	141332
#	152333
#
# Disc length: 2191 seconds
#
# Revision: 0
# Processed by: cddbd v1.4PL0 Copyright (c) Steve Scherf et al.
# Submitted via: CDex 1.40Beta8
#
DISCID=b7088d0e
DTITLE=Satellite V - Hillbilly Safari
DYEAR=1900
DGENRE=Country
TTITLE0=Ganymede Baby
TTITLE1=The Boy From Piney Woods
TTITLE2=Grandpas' Hooch
TTITLE3=Hudson Sled
TTITLE4=Bell Bottom Boogie
TTITLE5=Fruit Fly
TTITLE6=Little Pig
TTITLE7=Hillbily Safari
TTITLE8=Weary Blues From Waitin'
TTITLE9=Pop Let Me Have The Car
TTITLE10=Teenage Boogie
TTITLE11=3 Alley Cats
TTITLE12=So Long I'm Gone
TTITLE13=Honey Hush
EXTD=ID3G: 2
EXTT0=
EXTT1=
EXTT2=
EXTT3=
EXTT4=
EXTT5=
EXTT6=
EXTT7=
EXTT8=
EXTT9=
EXTT10=
EXTT11=
EXTT12=
EXTT13=
PLAYORDER=
